/* XPM */
static char *_b0b72a3645543b2b8045ffd97e88090[] = {
/* columns rows colors chars-per-pixel */
"16 16 154 2 ",
"   c #6B523B",
".  c #7E5A35",
"X  c #71563E",
"o  c #755A3B",
"O  c #7F5B38",
"+  c #7E693D",
"@  c #3D4755",
"#  c #3E4756",
"$  c #3E4959",
"%  c #43474A",
"&  c #42474B",
"*  c #42474C",
"=  c #43484A",
"-  c #43484C",
";  c #44494C",
":  c #454A4D",
">  c #454A4E",
",  c #414A57",
"<  c #454C54",
"1  c #454C55",
"2  c #464D55",
"3  c #474E55",
"4  c #494E52",
"5  c #4B4E52",
"6  c #4B4F52",
"7  c #4A4F53",
"8  c #484E56",
"9  c #404C59",
"0  c #454F5C",
"q  c #4B5052",
"w  c #4C5053",
"e  c #4F5353",
"r  c #4B5155",
"t  c #4C5155",
"y  c #4F5355",
"u  c #4E5457",
"i  c #45505B",
"p  c #47525B",
"a  c #4C5258",
"s  c #4F5558",
"d  c #4A535D",
"f  c #505355",
"g  c #535758",
"h  c #52565A",
"j  c #51585F",
"k  c #53595E",
"l  c #585C5E",
"z  c #705F44",
"x  c #6C654C",
"c  c #7D6140",
"v  c #786844",
"b  c #736648",
"n  c #73674C",
"m  c #70674F",
"M  c #77684D",
"N  c #786948",
"B  c #616054",
"V  c #626254",
"C  c #68685D",
"Z  c #6F6C5D",
"A  c #465060",
"S  c #4B5461",
"D  c #4B5660",
"F  c #495463",
"G  c #4C5561",
"H  c #4B5764",
"J  c #4D5765",
"K  c #505761",
"L  c #565C60",
"P  c #505B65",
"I  c #585F62",
"U  c #5D6165",
"Y  c #5F6265",
"T  c #696D6F",
"R  c #75797C",
"E  c #B56A1A",
"W  c #B66A1A",
"Q  c #B56B1C",
"!  c #9C6227",
"~  c #9D6729",
"^  c #BA7422",
"/  c #B67829",
"(  c #C27921",
")  c #867142",
"_  c #AD842F",
"`  c #AE8734",
"'  c #D59B22",
"]  c #D79B22",
"[  c #DD9F21",
"{  c #C08530",
"}  c #C78B32",
"|  c #CE9636",
" . c #CA983E",
".. c #D09F30",
"X. c #DBA229",
"o. c #DFAC34",
"O. c #D9AA38",
"+. c #E1A626",
"@. c #E7B63C",
"#. c #9B824C",
"$. c #98864D",
"%. c #9F874D",
"&. c #A08E52",
"*. c #D1A546",
"=. c #D8AD40",
"-. c #D8AC4B",
";. c #DDB649",
":. c #C7AB57",
">. c #C9AD53",
",. c #C9AE58",
"<. c #C4B15F",
"1. c #CBB25B",
"2. c #DEB954",
"3. c #E3BD4C",
"4. c #C3B060",
"5. c #E2C157",
"6. c #F4CD52",
"7. c #7A7E80",
"8. c #7E8185",
"9. c #868A8C",
"0. c #878A8D",
"q. c #888B8D",
"w. c #8A8D90",
"e. c #8D9093",
"r. c #8E9194",
"t. c #909395",
"y. c #929597",
"u. c #979A9C",
"i. c #9C9EA1",
"p. c #A6A8AA",
"a. c #ABAEB0",
"s. c #AFB2B4",
"d. c #B3B5B7",
"f. c #B6B8BA",
"g. c #BABCBE",
"h. c #BDBFC1",
"j. c #C0C2C4",
"k. c #C4C6C7",
"l. c #C5C6C8",
"z. c #C5C7C8",
"x. c #C6C7C9",
"c. c #CACBCD",
"v. c #CCCDCE",
"b. c #D7D8D9",
"n. c #DEDEDF",
"m. c #DEDFE0",
"M. c #F0F0F1",
"N. c #F9F9F9",
"B. c gray98",
"V. c #FBFBFB",
"C. c gray99",
"Z. c #FDFDFD",
"A. c gray100",
"S. c None",
/* pixels */
"S.S.S.S.S.S.S.S.S.S.S.S.S.S.S.S.",
"S.S.S.S.S.2.1.<.>.;.@.S.S.S.S.S.",
"S.S.S.-.%.B s 3 a B $.O.S.S.S.S.",
"S.S. .z @ 8 * 6 - 3 # x ..S.S.S.",
"S.} o 9 f = R m.w.: e $ v X.S.S.",
"S.~ 5 u - p.A.V.A.g.: u , _ S.S.",
"( . i = R A.V.V.V.A.e.= 0 + [ S.",
"Q   i w c.A.A.A.C.A.m.l G b ] S.",
"W X G U h.x.l.j.k.k.k.T d n ' S.",
"W O P 6 8.f.a.l.s.d.e.q J ) +.S.",
"S.! k r 9.b.r.M.u.v.i.6 K ` S.S.",
"S.^ c H e w.r.U q.y.g F N o.S.S.",
"S.S./ M S 3 8 g r 3 A n =.S.S.S.",
"S.S.S.{ #.Z I j L C &.3.S.S.S.S.",
"S.S.S.S.| *.:.4.,.5.6.S.S.S.S.S.",
"S.S.S.S.S.S.S.S.S.S.S.S.S.S.S.S."
};
