/* XPM */
static char *_aad2e2e1ef34639becb1567f0bac4a2[] = {
/* columns rows colors chars-per-pixel */
"32 32 183 2 ",
"   c #785330",
".  c #7C5834",
"X  c #3C4145",
"o  c #3E4448",
"O  c #3E4451",
"+  c #41464A",
"@  c #44494D",
"#  c #4C4E4F",
"$  c #5A4F44",
"%  c #54514A",
"&  c #404651",
"*  c #444B54",
"=  c #494E52",
"-  c #454E59",
";  c #494F5B",
":  c #4C5155",
">  c #47515C",
",  c #4B535C",
"<  c #4F585F",
"1  c #555755",
"2  c #5D5B52",
"3  c #51565A",
"4  c #555A5D",
"5  c #595C5A",
"6  c #605545",
"7  c #6A5E43",
"8  c #62574C",
"9  c #635A4B",
"0  c #6C6144",
"q  c #716549",
"w  c #776D4B",
"e  c #796E4E",
"r  c #686151",
"t  c #63635A",
"y  c #7D7551",
"u  c #4C5561",
"i  c #4D5862",
"p  c #565B60",
"a  c #585D61",
"s  c #61666A",
"d  c #65696D",
"f  c #6A6E72",
"g  c #6E7275",
"h  c #72767A",
"j  c #75797C",
"k  c #9B591E",
"l  c #A75E18",
"z  c #AA621C",
"x  c #B36A1E",
"c  c #865226",
"v  c #8E5523",
"b  c #81603A",
"n  c #866E3C",
"m  c #8E7136",
"M  c #A26221",
"N  c #A86521",
"B  c #AD6B23",
"V  c #B36E21",
"C  c #AF7127",
"Z  c #AF7329",
"A  c #A37C2D",
"S  c #B27125",
"D  c #B87222",
"F  c #B77B2E",
"G  c #B97B2B",
"H  c #B67F31",
"J  c #816B43",
"K  c #8A764B",
"L  c #88794F",
"P  c #827954",
"I  c #BE8A24",
"U  c #BE832F",
"Y  c #A68030",
"T  c #AA8230",
"R  c #BB8432",
"E  c #B38D36",
"W  c #B9943B",
"Q  c #D7991E",
"!  c #D89A1E",
"~  c #C1822C",
"^  c #CF9726",
"/  c #C3932C",
"(  c #D69B23",
")  c #D99D22",
"_  c #D19C2C",
"`  c #C18733",
"'  c #C38D34",
"]  c #C28E39",
"[  c #C69236",
"{  c #C6923A",
"}  c #CC9D3C",
"|  c #D09E30",
" . c #DBA025",
".. c #DBA42C",
"X. c #D4A232",
"o. c #DBA732",
"O. c #D7A837",
"+. c #DDAA35",
"@. c #D2A63C",
"#. c #DCAE3D",
"$. c #E0AE35",
"%. c #E5B33A",
"&. c #8F8257",
"*. c #BF9A48",
"=. c #BFA24C",
"-. c #AAA264",
";. c #A9A468",
":. c #AFA96A",
">. c #B2A460",
",. c #B6AB65",
"<. c #BCB26B",
"1. c #C69740",
"2. c #C99A42",
"3. c #C29E4B",
"4. c #D09F41",
"5. c #CFA344",
"6. c #CFA74D",
"7. c #D5A642",
"8. c #D8A743",
"9. c #D9AB43",
"0. c #DCAF4A",
"q. c #DCB244",
"w. c #DCB44A",
"e. c #D2AA50",
"r. c #C5B25D",
"t. c #C8B35D",
"y. c #DBB250",
"u. c #DFBD54",
"i. c #DAB758",
"p. c #DFBF5C",
"a. c #E0B544",
"s. c #E9BC45",
"d. c #E0B54E",
"f. c #E2BA4C",
"g. c #E0B751",
"h. c #CCB761",
"j. c #CDB964",
"k. c #DFC157",
"l. c #EAC24D",
"z. c #E5C457",
"x. c #EDC752",
"c. c #EEC852",
"v. c #E3C35A",
"b. c #EAC65B",
"n. c #ECC85B",
"m. c #F1CE5C",
"M. c #F3D25E",
"N. c #E4C863",
"B. c #E9CC60",
"V. c #ECD66D",
"C. c #F3D662",
"Z. c #797D80",
"A. c #808487",
"S. c #818588",
"D. c #868A8D",
"F. c #888B8E",
"G. c #8B8E91",
"H. c #8E9194",
"J. c #909396",
"K. c #939699",
"L. c #96999C",
"P. c #9A9DA0",
"I. c #9FA2A4",
"U. c #A1A4A6",
"Y. c #A4A7A9",
"T. c #ACAEB0",
"R. c #ADB0B2",
"E. c #B7B9BB",
"W. c #BBBDBE",
"Q. c #C8CACB",
"!. c #CFD0D1",
"~. c #D3D4D5",
"^. c #D9DADB",
"/. c #DEDFE0",
"(. c #E3E4E4",
"). c #E6E7E8",
"_. c #E7E8E8",
"`. c #EAEAEB",
"'. c #EFF0F0",
"]. c #F4F4F5",
"[. c #F7F8F8",
"{. c #FEFEFE",
"}. c None",
/* pixels */
"}.}.}.}.}.}.}.}.}.}.}.}.}.}.}.}.}.}.}.}.}.}.}.}.}.}.}.}.}.}.}.}.",
"}.}.}.}.}.}.}.}.}.}.{ }.}.7.@.}.}.O.}.}.}.}.}.}.}.}.}.}.}.}.}.}.",
"}.}.}.}.}.}.}.}.}.}.v.y.0.C.C.m.x.s.w.}.X.w.}.}.}.}.}.}.}.}.}.}.",
"}.}.}.}.}.}.}.p.e.7.n.v.h.,.;.-.>.r.v.l.$.9.}.}.}.}.}.}.}.}.}.}.",
"}.}.}.}.}.}.}.V.d.*.L 2 * * O O O * 1 y =.s.a._ q.}.}.}.}.}.}.}.",
"}.}.}.}.2.e.{ { J = & = : : : : : : : & * w @...q.}.}.}.}.}.}.}.",
"}.}.}.}.i.y.R 6 * : : : : : : : : : : : : * # W %.| X.}.}.}.}.}.",
"}.}.}.}.R Z % - : : : : : : @ @ = : : : : : : * E ) _ }.}.}.}.}.",
"}.}.] 2.S 6 * : : : : : @ o E.^.4 X : : = : : = # / +.}.}.}.}.}.",
"}.}.1.~ . - : = = : : + Z.Q.{.{.^.J.= * : : : : * 0 ( ^ _ }.}.}.",
"}.}.V M # : : : : : @ R.{.{.{.{.{.{.~.3 = : : = : * Y ( | }.}.}.",
"B R D   - : : = 3 o Y.{.[.{.{.{.{.[.{.!.* : : : : - 0 ( }.}.}.}.",
"}.R z $ > : : 3 o j {.{.{.{.{.{.{.{.[.{.U.o : : : : = I ( _ }.}.",
"}.x k = : : : : @ !.{.[.{.{.{.{.{.{.{.{.].s : 3 : : * A ! _ }.}.",
"}.V v = : = : @ f {.{.{.{.{.{.{.{.{.{.{.{.P.* a 4 4 > m ) }.}.}.",
"C x c * : : 4 : R.{.{.{.{.{.{.[.{.{.{.[.{.~.4 4 4 4 u n ! }.}.}.",
"}.x c - 3 p 3 d ].{.{.{.{.{.{.{.{.{.{.{.{.{.D.= p 4 u n ! _ }.}.",
"}.V v < 4 4 4 4 H.K.G.G.G.G.H.G.G.G.G.G.J.L.s 3 4 4 u m ) | }.}.",
"C z k 3 p 4 4 4 * h J.K.J.G.G.H.G.J.K.J.S.: 3 4 4 4 u A ) }.}.}.",
"C B l 8 p 4 4 4 4 ^.{.(.{.{.{.{.{.{._.].{.f 3 4 4 4 4 I o.X.}.}.",
"}.}.V . i 4 4 p = W.{.4 : d ~.[.j 4 o ^.`.4 4 4 4 u q ( O._ }.}.",
"}.}.z M 1 p 4 p : g {.~.g D.`.[.I.f R.{.L.= p 4 5 , T  .}.}.}.}.",
"}.F N x b i 4 4 p : S.`.'.E.g s U.(.].U.: p 4 4 u q ..q.}.}.}.}.",
"}.}.}.{ D 9 u 4 4 4 : 3 a * : 3 * 4 4 : 4 4 4 p 4 / $.q.}.}.}.}.",
"}.}.}.H z Z 2 u 4 4 4 4 3 a 4 4 p 4 4 p 4 4 i < E $.}.}.}.}.}.}.",
"}.}.}.` Z ] R r u 4 5 p 4 4 4 4 4 4 4 4 4 , 5 W s.z.}.}.}.}.}.}.",
"}.}.}.}.}.}.F ' K 3 , u p a 4 p 4 4 4 , , e @.%.w.a.}.}.}.}.}.}.",
"}.}.}.}.}.}.C U 8.3.&.t : ; ; ; > 3 5 P =.l.C.v.}.}.}.}.}.}.}.}.",
"}.}.}.}.}.}.}.}.2.U 9.p.h.<.:.;.,.r.v.m.x.w.n.f.}.}.}.}.}.}.}.}.",
"}.}.}.}.}.}.}.}.}.U }.w.4.g.C.n.b.l.f.N.u.}.}.}.}.}.}.}.}.}.}.}.",
"}.}.}.}.}.}.}.}.}.}.}.}.[ ' }.} 5.}.}.#.}.}.}.}.}.}.}.}.}.}.}.}.",
"}.}.}.}.}.}.}.}.}.}.}.}.}.}.}.}.}.}.}.}.}.}.}.}.}.}.}.}.}.}.}.}."
};
