/* XPM */
static char *_149_63a713cd2af7e95223d063b4effd0cdac4a52dd8ff17e62af8a183bc456ec80f[] = {
/* columns rows colors chars-per-pixel */
"64 64 203 2 ",
"   c #32373C",
".  c #5D4E3E",
"X  c #694F36",
"o  c #6B5438",
"O  c #785432",
"+  c #79542F",
"@  c #72613C",
"#  c #3A3F44",
"$  c #3D4247",
"%  c #3E444C",
"&  c #3C4552",
"*  c #3F4954",
"=  c #41464B",
"-  c #44494D",
";  c #4B4C4A",
":  c #54544D",
">  c #5C594D",
",  c #595446",
"<  c #444C54",
"1  c #494E53",
"2  c #444E5A",
"3  c #404752",
"4  c #4C5155",
"5  c #4E5459",
"6  c #47515E",
"7  c #515453",
"8  c #5B5C53",
"9  c #51565A",
"0  c #555A5E",
"q  c #585C5E",
"w  c #594F42",
"e  c #655C45",
"r  c #665A45",
"t  c #5E6052",
"y  c #69614A",
"u  c #756946",
"i  c #7A714E",
"p  c #646656",
"a  c #686856",
"s  c #7A7556",
"d  c #716E57",
"f  c #4B5560",
"g  c #4F5860",
"h  c #575C60",
"j  c #595E61",
"k  c #5C6165",
"l  c #666A6D",
"z  c #616669",
"x  c #6A6E71",
"c  c #6D7174",
"v  c #767A7D",
"b  c #707478",
"n  c #9E5214",
"m  c #A55613",
"M  c #A55917",
"N  c #AA5A14",
"B  c #A35C1B",
"V  c #A85713",
"C  c #A7621E",
"Z  c #AB641D",
"A  c #B16A1D",
"S  c #B8711F",
"D  c #885A2A",
"F  c #965B22",
"G  c #9A692C",
"H  c #896B37",
"J  c #916D37",
"K  c #92743C",
"L  c #8D7439",
"P  c #A96620",
"I  c #AD6B22",
"U  c #AA7A2A",
"Y  c #B27226",
"T  c #BD7A26",
"R  c #B37529",
"E  c #B5792B",
"W  c #B97E2E",
"Q  c #B87120",
"!  c #A47D37",
"~  c #B87D30",
"^  c #B06F25",
"/  c #967F49",
"(  c #AB822D",
")  c #BB812F",
"_  c #BB8A27",
"`  c #BD8532",
"'  c #BF8934",
"]  c #BE8E3A",
"[  c #B28837",
"{  c #CB8D1A",
"}  c #CE911D",
"|  c #D3941A",
" . c #D9991D",
".. c #D7981C",
"X. c #C58828",
"o. c #CD9423",
"O. c #CF9927",
"+. c #D09724",
"@. c #D39A25",
"#. c #DA9E25",
"$. c #D29C2B",
"%. c #C38D34",
"&. c #C28D3A",
"*. c #CB8F32",
"=. c #CB9235",
"-. c #C5933C",
";. c #CC9B3E",
":. c #C9973F",
">. c #D39F3E",
",. c #D4A12E",
"<. c #DDA52B",
"1. c #D5A433",
"2. c #D9A734",
"3. c #DAA935",
"4. c #D4A53D",
"5. c #D7A93D",
"6. c #DAAC3A",
"7. c #DDB03D",
"8. c #E7B73D",
"9. c #E0A528",
"0. c #9B8448",
"q. c #898359",
"w. c #968A54",
"e. c #A18645",
"r. c #A5975B",
"t. c #B29852",
"y. c #B5A257",
"u. c #CB9C43",
"i. c #C79842",
"p. c #CEA144",
"a. c #CFA44B",
"s. c #C2A349",
"d. c #D2A444",
"f. c #D2AA44",
"g. c #D0A64A",
"h. c #D4AA4B",
"j. c #D9AC44",
"k. c #DDB243",
"l. c #DBB34E",
"z. c #DEB94C",
"x. c #D0B14E",
"c. c #C5AF5D",
"v. c #D6AF52",
"b. c #D5B152",
"n. c #DAB352",
"m. c #DEBC5A",
"M. c #D9BA56",
"N. c #E1B64C",
"B. c #E2BB4C",
"V. c #E9BC44",
"C. c #E3BD52",
"Z. c #E0BF5B",
"A. c #EBC34D",
"S. c #E9C14B",
"D. c #E5C254",
"F. c #E3C45B",
"G. c #EAC65B",
"H. c #EBCC5C",
"J. c #EACA5A",
"K. c #F2D05B",
"L. c #F1CD56",
"P. c #E4C662",
"I. c #E7CA63",
"U. c #E9CD63",
"Y. c #ECD164",
"T. c #ECD46C",
"R. c #EBD46C",
"E. c #FADC65",
"W. c #F2DC6D",
"Q. c #FADE6B",
"!. c #F3D766",
"~. c #F2DE71",
"^. c #F4E275",
"/. c #FAE777",
"(. c #FBE06F",
"). c #7A7E81",
"_. c #7E8184",
"`. c #898C8F",
"'. c #828689",
"]. c #96999C",
"[. c #95989A",
"{. c #8B8F91",
"}. c #9C9FA1",
"|. c #A9ABAD",
" X c #A7A9AB",
".X c #AEB0B2",
"XX c #B2B4B6",
"oX c #B6B9BA",
"OX c #B8BBBC",
"+X c #BFC1C2",
"@X c #CBCCCD",
"#X c #C2C3C5",
"$X c #CECFD0",
"%X c #D5D6D7",
"&X c #D7D8D9",
"*X c #DADBDC",
"=X c #DFE0E0",
"-X c #E3E4E5",
";X c #E9EAEA",
":X c #E6E7E8",
">X c #F4F4F5",
",X c #FEFEFE",
"<X c None",
/* pixels */
"<X<X<X<X<X<X<X<X<X<X<X<X<X<X<X<X<X<X<X<X<X<X<X<X<X<X<X<X<X<X<X<X<X<X<X<X<X<X<X<X<X<X<X<X<X<X<X<X<X<X<X<X<X<X<X<X<X<X<X<X<X<X<X<X",
"<X<X<X<X<X<X<X<X<X<X<X<X<X<X<X<X<X<X<X<X<X<X<X<X<X<X<X%.%.<X<X<X<X<X<Xu.<X<X<X<X<X<X<X<X<X<X<X<X<X<X<X<X<X<X<X<X<X<X<X<X<X<X<X<X",
"<X<X<X<X<X<X<X<X<X<X<X<X<X<X<X<X<X<X<X<XZ <X<X<X<X<X<Xk.6.<X<X<X<X<X4.5.<X<X<X<X<X<X<X<X<X<X<X<X<X<X<X<X<X<X<X<X<X<X<X<X<X<X<X<X",
"<X<X<X<X<X<X<X<X<X<X<X<X<X<X<X<X<X<X<X<Xd.u.<X<X<X<X4.D.B.f.<X<X<X4.6.6.f.<X<X<X<X<XZ.<X<X<X<X<X<X<X<X<X<X<X<X<X<X<X<X<X<X<X<X<X",
"<X<X<X<X<X<X<X<X<X<X<X<X<X<X<X<X<X<X<X<XD.!.h.X.<X%.B.B.B.B.f.-.5.7.6.2.5.<X<X<Xz.1.l.<X<X<X<X<X<X<X<X<X<X<X<X<X<X<X<X<X<X<X<X<X",
"<X<X<X<X<X<X<X<X<X<X<X<X<X<X<X<X<X<X<X:.Y.U.K.Z.u.m.Y.T.~.W.W.Y.Y.J.D.z.k.l.<X5.,.$.6.<X<X<X<X<X<X<X<X<X<X<X<X<X<X<X<X<X<X<X<X<X",
"<X<X<X<X<X<X<X<X<X<X<X<X<X~ b.&.<X<X<Xn.Y.Z.Z.P.!.(./././.^.~.W.W.Q.E.!.K.G.z.6.1.$.1.U.<X<X<X<X<X<X<X<X<X<X<X<X<X<X<X<X<X<X<X<X",
"<X<X<X<X<X<X<X<X<X<X<X<X<X-./.~.I.h.%.v.v.C.G.F.c.r.q.d a t t t a i w.y.M.L.L.J.B.6.,.F.<X<X<XJ.D.<X<X<X<X<X<X<X<X<X<X<X<X<X<X<X",
"<X<X<X<X<X<X<X<X<X<X<X<X<Xu.^.^.!.v.h.N.v.t.i 7 = & & 3 < < < < - * % % - y w.x.A.A.8.B.J.7.2.} 3.<X<X<X<X<X<X<X<X<X<X<X<X<X<X<X",
"<X<X<X<X<X<X<X<X<X<X<X<X<Xa./.v.-.4.d./ : 3 3 1 4 5 7 7 1 7 4 4 4 9 4 4 4 < & % i y.S.8.6.,.o.} 5.<X<X<X<X<X<X<X<X<X<X<X<X<X<X<X",
"<X<X<X<X<X<X<X<X^ ^ <X<X<Xu.a.&.d./ ; & 1 7 7 4 1 4 4 1 1 7 4 1 4 4 4 4 4 4 4 4 * * u f.V.7.2.} 6.<X<X<X<X<X<X<X<X<X<X<X<X<X<X<X",
"<X<X<X<X<X<X<X<Xa.P.m.m.u.W -.] r & 4 7 1 1 1 4 4 4 4 4 7 1 4 4 4 4 4 4 4 4 4 4 4 4 * - 0.8.7.,.6.<X<X<X<X<X<X<X<X<X<X<X<X<X<X<X",
"<X<X<X<X<X<X<X<Xu.I.T.n.` =.! < 3 7 1 4 4 4 4 4 4 4 4 4 4 4 4 4 4 4 4 4 4 4 4 4 4 4 7 4 & @ 7.3.6.D.N.N.k.k.<X<X<X<X<X<X<X<X<X<X",
"<X<X<X<X<X<X<X<X&.I.g.^ X.J 3 1 4 2 7 4 4 4 4 4 4 4 4 4 4 4 1 4 4 4 4 4 4 4 4 4 4 4 4 4 4 & , 1.3.$.@.} { @.<X<X<X<X<X<X<X<X<X<X",
"<X<X<X<X<X<X<X<X` v.^ X.H & 4 1 4 4 4 4 4 4 4 4 4 4 4 4 4 7 4 4 4 4 4 4 4 4 4 4 4 4 4 4 4 4 * : 1.3.$.o.{ 6.<X<X<X<X<X<X<X<X<X<X",
"<X<X<X<X<X<X<X<X^ Y T J & 7 4 4 4 4 4 4 4 4 4 4 4 4 4 4 1 $ = = 4 1 1 4 4 4 4 4 4 4 4 4 4 4 7 < , ,.,.$.o.k.<X<X<X<X<X<X<X<X<X<X",
"<X<X<XB E ` &.u.U Q U * 4 4 1 4 4 4 4 4 4 4 4 4 4 4 9 1 q XX@X`.- 9 4 4 4 4 4 4 4 4 4 4 4 4 4 4 * y <.$.$.D.<X<X<X<X<X<X<X<X<X<X",
"<X<X<X<Xu.h.n.&.Z Y ; < 4 4 4 4 4 4 4 4 4 4 4 4 4 4 - # %X,X,X,X'.  4 4 4 4 4 4 4 4 4 4 4 4 4 1 4 & L 9.$.N.<X<X<X<X<X<X<X<X<X<X",
"<X<X<X<XW g.u.P S o * 4 4 4 4 4 4 4 4 4 4 4 4 4 = - c |.,X>X,X,X*X`.k $ 4 4 4 4 4 4 4 4 4 4 4 4 4 4 % _ #.o.$.,.1.6.<X<X<X<X<X<X",
"<X<X<X<XP u.E A G * 7 1 4 4 4 4 4 4 4 4 4 4 4 $ v *X,X,X,X,X,X,X,X,X>XXX4 = 4 4 4 4 4 4 4 4 4 4 4 4 < e ,.+.o.} { $.<X<X<X<X<X<X",
"<X<X<X<X<XW C A . 2 4 4 4 4 4 4 4 4 4 4 4 4 % |.,X,X,X,X,X,X,X,X,X>X,X,X;Xc % 9 4 4 4 4 4 4 4 4 4 4 4 & ( #.o.o.o.k.<X<X<X<X<X<X",
"<X<X<X<XI C A D * 4 4 4 4 4 4 4 4 4 4 4 4 - +X,X>X,X,X,X,X,X,X,X,X,X,X,X,X>Xv $ 4 4 4 4 4 4 4 4 4 4 4 1 , @.+.} ,.<X<X<X<X<X<X<X",
"<X<XZ E ' C Z X 2 4 1 4 4 4 4 4 4 4 1 4 % OX,X,X,X,X,X,X,X,X,X,X,X,X,X,X,X,X>Xc - 4 4 4 4 4 4 4 4 4 4 4 & ( @.+.N.<X<X<X<X<X<X<X",
"B R ` -.W N F - 4 4 4 4 4 4 4 4 4 4 9 $ [.,X>X,X,X,X,X,X,X,X,X,X,X,X,X,X,X,X,X:X0 1 4 1 4 4 4 4 4 4 1 4 * @  .+.k.<X<X<X<X<X<X<X",
"<XY ` %.I N O * 4 4 4 4 4 4 4 4 4 4 - l ,X,X,X,X,X,X,X,X,X,X,X,X,X,X,X,X,X,X,X,X+X% 4 4 4 4 4 4 4 4 4 4 1 - o.} +.,.<X<X<X<X<X<X",
"<X<XE ` B M . 2 4 4 4 4 4 4 4 4 1 4 - @X,X>X,X,X,X,X,X,X,X,X,X,X,X,X,X,X,X,X,X,X,X_.= 4 4 4 4 4 4 4 4 1 4 & ( ..o.@.@.$.<X<X<X<X",
"<X<X<XE M B ; 4 4 4 4 4 4 4 4 1 4 = _.,X,X,X,X,X,X,X,X,X,X,X,X,X,X,X,X,X,X,X,X>X,X&X4 5 4 4 4 4 4 4 4 4 7 * H ..} O.o.o.3.<X<X<X",
"<X<X<XZ m F < 4 4 4 4 4 4 4 4 4 4 = $X,X,X,X,X,X,X,X,X,X,X,X,X,X,X,X,X,X,X,X,X,X,X,X'.4 j 0 0 5 9 4 4 4 4 * o | } +.O.5.<X<X<X<X",
"<X<XR P V D < 4 4 4 4 4 4 4 4 4 - c ,X,X,X,X,X,X,X,X,X,X,X,X,X,X,X,X,X,X,X,X,X,X,X,X#X4 h 0 0 h t h 0 9 4 4 : } } $.3.<X<X<X<X<X",
"<XY E C m + < 4 4 1 4 4 4 4 4 9 -  X,X,X,X,X,X,X,X,X,X,X,X,X,X,X,X,X,X,X,X,X,X,X,X,X>Xl 9 0 0 9 g g 0 0 0 0 : X.} 1.<X<X<X<X<X<X",
"I Y E C m X < 4 4 4 4 4 4 4 0 k - &X,X,X,X,X,X,X,X,X,X,X,X,X,X,X,X,X,X,X,X,X,X,X,X,X,X_.- k 0 0 0 0 0 9 0 0 4 _ | +.<X<X<X<X<X<X",
"I ^ Y B V X 2 4 4 1 4 9 0 0 q 4 ].,X,X,X,X,X,X,X,X,X,X,X,X,X,X,X,X,X,X,X,X,X,X,X,X,X,X=Xl 5 0 0 0 h 0 0 0 q 4 _ } +.$.<X<X<X<X<X",
"<XY Y B V X < 4 5 5 0 0 0 0 5 l >X,X,X,X,X,X,X,X,X,X,X,X,X,X,X,X,X,X,X,X,X,X,X>X,X,X>X,X+X1 j 0 0 0 0 0 0 0 5 _ | +.$.$.$.<X<X<X",
"<X<XW B V X 2 0 0 0 0 0 0 j 5 l ,X,X,X,X,X,X,X,X,X,X,X,X,X,X,X,X,X,X,X,X,X,X,X,X,X,X,X,XOX1 0 0 0 0 0 0 0 0 4 _ } $.,.$.$.<X<X<X",
"<X<X<XP V + 5 j 0 0 0 0 0 0 0 5 .X-X*X*X*X*X*X*X*X*X*X*X*X*X*X*X*X*X*X*X*X*X*X*X*X*X*X&Xv 4 j 0 0 0 0 0 0 0 4 { } $.,.$.<X<X<X<X",
"<X<XE C V D 6 q 0 0 0 0 0 0 0 0 1 4 5 9 4 5 7 5 9 4 4 9 5 4 9 5 5 9 4 9 5 7 5 9 5 5 5 4 9 q 0 0 0 0 0 0 0 g > } } ,.$.<X<X<X<X<X",
"<XE Z Z M F 6 0 0 0 0 0 0 0 0 0 0 j 9 4 4 4 9 5 4 5 7 5 9 5 7 9 4 9 5 4 9 5 4 5 5 4 0 0 0 0 0 0 0 0 0 0 0 f y ..o.<X<X<X<X<X<X<X",
"R B Z P B B 7 0 0 0 0 0 0 0 0 0 0 4 ).*X*X*X&X&X*X*X*X*X*X*X*X*X*X*X*X*X*X%X*X*X*XOX0 0 0 0 h 0 0 0 0 0 0 6 H ..o.1.<X<X<X<X<X<X",
"Y I C C B N r g 0 0 0 0 h 0 0 9 q 1 @X,X,X,X,X,X,X,X,X,X,X,X,X,X,X,X,X,X,X,X,X,X,X,X_.4 h 0 0 0 0 0 0 0 q 6 U | $.6.$.<X<X<X<X<X",
"<X<X) Y B N O 6 0 0 0 0 0 0 0 0 j 1 +X,X,X>X XXX*X>X,X,X,X,X,X,X,X,X,X;X@X}.$X,X,X,Xv 4 0 0 0 0 0 0 0 0 0 7 o.} 1.6.1.<X<X<X<X<X",
"<X<X<X<XW M F 7 j 0 0 0 0 0 h 0 j 1 [.,X,X>X4 < 4 z _..X-X,X,X>X@X].b j 4 $ [.,X,X;X0 0 0 0 0 0 0 0 0 0 6 u  .o.6.6.2.+.<X<X<X<X",
"<X<X<X<X` B Z r 9 0 0 0 0 0 0 0 0 5 z >X,X,X`.4 k 0 9 $ x ,X,X$X$ 4 5 q k 4 %X,X,XoX1 j 0 0 0 h 0 0 0 q 2 (  .,.6.$.+.<X<X<X<X<X",
"<X<X<Xi.C B Z F 6 0 0 0 0 0 0 0 0 0 1 XX,X,X:Xj - 4 1 < #X,X,X,X).- 5 4 % ].,X,X>Xc 4 0 0 0 0 0 0 0 0 f e #.o.$.<X<X<X<X<X<X<X<X",
"<X<X<XE M C P A > 9 0 0 0 0 0 0 0 0 9 k ;X,X,X:X[._.{.&X,X>X>X,X>XXX_._.OX,X>X,X|.1 j 0 0 0 0 0 0 0 h 2 ( @.,.,.<X<X<X<X<X<X<X<X",
"<X<X-.B m B B A G 6 q 0 0 h 0 0 0 0 j 4 c ;X,X,X,X,X,X=X[.l k b oX>X,X,X,X,X,XoX4 q 0 0 0 0 0 0 0 0 5 y <.} k.6.<X<X<X<X<X<X<X<X",
"<X<Xi.` ~ ^ I P Q o f q 0 0 0 0 0 0 0 0 4 j |.*X-X%X`.1 - 9 9 4 1 z XX-X-X@X'.1 0 0 0 0 0 0 0 0 0 0 2 ' @.1.N.7.<X<X<X<X<X<X<X<X",
"<X<X<X<X<X<X<X&.I Y 7 h 0 0 0 0 0 0 0 0 j 9 1 9 q 1 1 h h q 0 h j 5 1 5 q 1 1 0 0 0 0 0 h 0 0 0 t * L <.$.B.B.B.3.<X<X<X<X<X<X<X",
"<X<X<X<X<X<X<X&.C T G < 0 0 0 0 0 0 0 0 0 0 q 0 0 h h h 9 0 0 h 0 0 q 0 0 j j 0 0 0 0 0 0 0 0 0 f u <.$.3.N.6.1.$.<X<X<X<X<X<X<X",
"<X<X<X<X<X<X<XE B Y T J 2 h h 9 0 0 0 0 0 0 0 0 0 0 0 0 0 0 0 0 0 0 0 0 0 0 0 0 0 0 0 0 h h t 6 8 1.,.,.<X<X<X<X<X<X<X<X<X<X<X<X",
"<X<X<X<X<X<Xm.P M P R X.H 6 h h 0 0 0 0 0 0 0 0 0 0 0 0 0 0 0 0 0 0 0 0 0 0 0 0 0 0 0 0 5 j f > 1.,.5.z.<X<X<X<X<X<X<X<X<X<X<X<X",
"<X<X<X<X<X<Xu.n B B I E X./ 2 9 q 0 0 0 0 0 0 h 0 0 0 0 0 h 0 0 0 0 0 0 0 0 0 0 0 0 0 0 j 6 e 4.2.1.J.S.<X<X<X<X<X<X<X<X<X<X<X<X",
"<X<X<X<X<X<Xv.i.u.a.b.v.E *.! 7 6 q 0 h 0 0 0 0 0 h 0 0 0 0 0 0 0 h 0 0 0 0 0 0 0 0 h h 2 u 7.3.7.U.H.D.<X<X<X<X<X<X<X<X<X<X<X<X",
"<X<X<X<X<X<X<X<X<X<X<XP.^ %.*.&.u 2 g h 0 0 0 0 0 0 0 0 0 0 0 0 0 0 0 0 0 0 0 0 0 q 6 4 e.8.3.3.D.D.D.J.2.<X<X<X<X<X<X<X<X<X<X<X",
"<X<X<X<X<X<X<X<X<X<X<XZ.P ^ &.i.>./ > 2 9 q 0 0 9 0 0 h 0 0 0 0 0 0 0 9 0 q 0 q 6 < i f.V.6.B.,.<X<X+.$.o.<X<X<X<X<X<X<X<X<X<X<X",
"<X<X<X<X<X<X<X<X<X<X<XZ.P B B W i.d.g.0.8 2 6 0 h h h h 0 h h h 0 0 q j q 5 < 4 i y.S.8.k.Y.Y.<X<X<X<X<X<X<X<X<X<X<X<X<X<X<X<X<X",
"<X<X<X<X<X<X<X<X<X<X<XZ.B A %.i.C.i.h.N.n.t.s 8 1 2 1 6 5 5 5 f 5 2 2 2 7 a w.l.A.S.z.H.~.~.H.<X<X<X<X<X<X<X<X<X<X<X<X<X<X<X<X<X",
"<X<X<X<X<X<X<X<X<X<X<XI.a.<X<X<X<X&.W u.n.G.G.F.c.r.q.s a p p a d s w.y.M.H.L.A.D.z.6.U.W.^.H.<X<X<X<X<X<X<X<X<X<X<X<X<X<X<X<X<X",
"<X<X<X<X<X<X<X<X<X<X<X<X<X<X<X<X<Xd.I R ) :.M.I.W.(./././.^.^.W.Q.Q.E.E.K.J.F.U.R.k.<X<X1.C.N.<X<X<X<X<X<X<X<X<X<X<X<X<X<X<X<X<X",
"<X<X<X<X<X<X<X<X<X<X<X<X<X<X<X<X<Xl.Y Y ) ;.<Xp.u.b.Z.R.~.~.R.T.Y.I.F.N.z.P.U.R.H.<X<X<X<X<X<X<X<X<X<X<X<X<X<X<X<X<X<X<X<X<X<X<X",
"<X<X<X<X<X<X<X<X<X<X<X<X<X<X<X<X<X<X) -.<X<X<Xk.` ` ' -.d.k.d.g.h.b.h.<X<Xj.F.R.z.<X<X<X<X<X<X<X<X<X<X<X<X<X<X<X<X<X<X<X<X<X<X<X",
"<X<X<X<X<X<X<X<X<X<X<X<X<X<X<X<X<X<XD.<X<X<X<X<X;.` -.5.<X<X5.d.h.h.6.<X<X<X1.z.6.<X<X<X<X<X<X<X<X<X<X<X<X<X<X<X<X<X<X<X<X<X<X<X",
"<X<X<X<X<X<X<X<X<X<X<X<X<X<X<X<X<X<X<X<X<X<X<X<Xk.%.4.<X<X<X<X6.g.4.<X<X<X<X<X<X<X<X<X<X<X<X<X<X<X<X<X<X<X<X<X<X<X<X<X<X<X<X<X<X",
"<X<X<X<X<X<X<X<X<X<X<X<X<X<X<X<X<X<X<X<X<X<X<X<X<Xk.<X<X<X<X<X<X4.<X<X<X<X<X<X<X<X<X<X<X<X<X<X<X<X<X<X<X<X<X<X<X<X<X<X<X<X<X<X<X",
"<X<X<X<X<X<X<X<X<X<X<X<X<X<X<X<X<X<X<X<X<X<X<X<X<X<X<X<X<X<X<X<X<X<X<X<X<X<X<X<X<X<X<X<X<X<X<X<X<X<X<X<X<X<X<X<X<X<X<X<X<X<X<X<X"
};
